<?xml version="1.0" encoding="utf-8"?>
<!-- Generator: Adobe Illustrator 18.1.1, SVG Export Plug-In . SVG Version: 6.00 Build 0)  -->
<svg version="1.1" id="Layer_1" xmlns="http://www.w3.org/2000/svg" xmlns:xlink="http://www.w3.org/1999/xlink" x="0px" y="0px"
	 width="199px" height="206px" viewBox="-318 212.3 199 206" enable-background="new -318 212.3 199 206" xml:space="preserve">
<g>
	<defs>
		<rect id="SVGID_1_" x="-294" y="245.3" width="168" height="168"/>
	</defs>
	<clipPath id="SVGID_2_">
		<use xlink:href="#SVGID_1_"  overflow="visible"/>
	</clipPath>
	<path clip-path="url(#SVGID_2_)" fill="#FFFFFF" d="M-126,329.3c0,46.4-37.6,84-84,84c-46.4,0-84-37.6-84-84s37.6-84,84-84
		C-163.6,245.3-126,282.9-126,329.3"/>
</g>
<path fill="#082032" d="M-178.9,287.8c-5.5-11.7-16.1-24.4-36.7-23.8c-43.2,1.3-46.2,44.7-35.6,65.4c9,17.5,32,33,34,40.6
	c1.6,6.2,4.2,27.6,23.3,27.6c16.2,0,25.5-12.5,24.2-26.5c-0.9-10.3-8-19-12-13.3c-4.7,6.6,10,11.8,2.8,23.3c-3.4,5.3-8,8.7-15,8.7
	c-14,0-14.4-17.6-17.2-22.7c-5-9.1-34-32.5-35.2-57.1c-1-19.3,10-37,34.3-35.6c23,1.3,28.2,20.1,29,29.9c0.7,8.2-2,17.2,2.8,17.1
	C-175.6,321.2-173,300.4-178.9,287.8"/>
<path fill="#082032" d="M-223.2,327.4c-3.3,1.5-8.9-7.3-10.4-15.4c-1.9-10.1-0.4-19.1,7.9-25.2c15.3-11.3,34.2-2.3,37,15.1
	c3.1,18.4-14.2,16.8-9,29.3c1.6,3.8,6.7,8.4,8.7,11.7c2.9,4.9,1.8,11.4-2.5,13.9c-10.1,6.1-21.7-7.8-22.9-24.2
	c-1-13.9,17.5-19.5,16.4-30c-1-9.1-9-14.8-18.2-12.5c-9.1,2.2-14.6,15.4-9.8,26.3C-223.8,321.4-219.8,325.9-223.2,327.4"/>
<path fill="#FF4338" d="M-273.4,329.6L-273.4,329.6c-0.5,0-1.1-0.1-1.6-0.4c-0.8-0.4-1.4-1.1-1.6-2c-5.2-16.9-3.4-34.7,4.9-50.3
	c8.3-15.6,22.2-27,39-32.2c0.3-0.1,0.6-0.1,1-0.1c1.5,0,2.7,0.9,3.2,2.4c0.3,0.8,0.2,1.7-0.2,2.5c-0.4,0.8-1.1,1.4-2,1.6
	c-15.2,4.6-27.6,14.9-35.1,29c-7.5,14-9,30.1-4.4,45.3c0.3,0.8,0.2,1.7-0.2,2.5c-0.4,0.8-1.1,1.4-2,1.6
	C-272.7,329.6-273,329.6-273.4,329.6z"/>
<path fill="#FF4338" d="M-289.3,335.4c-0.5,0-1.1-0.1-1.6-0.4c-0.8-0.4-1.4-1.1-1.6-2c-6.5-21.1-4.3-43.5,6.1-63
	s27.7-33.8,48.9-40.2c0.3-0.1,0.6-0.1,1-0.1c1.5,0,2.7,0.9,3.2,2.4c0.3,0.8,0.2,1.7-0.2,2.5c-0.4,0.8-1.1,1.4-2,1.6
	c-19.5,5.8-35.5,19-45,36.9s-11.5,38.5-5.6,58c0.5,1.8-0.5,3.6-2.2,4.1C-288.6,335.3-289,335.4-289.3,335.4z"/>
<path fill="#FF4338" d="M-304.6,340.5c-0.5,0-1.1-0.1-1.6-0.4c-0.8-0.4-1.4-1.1-1.6-2c-7.6-25-5-51.5,7.3-74.6s32.9-40,57.9-47.7
	c0.3-0.1,0.6-0.1,1-0.1c1.4,0,2.8,1,3.2,2.4c0.3,0.8,0.2,1.7-0.2,2.5c-0.4,0.8-1.1,1.4-2,1.6c-48.2,14.7-75.4,65.8-60.8,114
	c0.3,0.8,0.2,1.7-0.2,2.5c-0.4,0.8-1.1,1.4-2,1.6C-303.9,340.4-304.3,340.5-304.6,340.5z"/>
</svg>
