<?xml version="1.0" encoding="utf-8"?>
<!-- Generator: Adobe Illustrator 18.1.1, SVG Export Plug-In . SVG Version: 6.00 Build 0)  -->
<svg version="1.1" id="Layer_1" xmlns="http://www.w3.org/2000/svg" xmlns:xlink="http://www.w3.org/1999/xlink" x="0px" y="0px"
	 width="184px" height="173.3px" viewBox="-303 220.7 184 173.3" enable-background="new -303 220.7 184 173.3"
	 xml:space="preserve">
<path fill="none" stroke="#231F20" stroke-width="8" stroke-linecap="round" stroke-miterlimit="10" d="M-172.5,341.7
	c-0.8,4.5-5.3,9.9-10.8,11.8c-14.2,4.8-29.5-18.8-47.8-14.8c-11.3,2.5-18.5,11.8-17.5,24.5"/>
<g>
	<defs>
		<rect id="SVGID_1_" x="-253.3" y="248.5" width="85.4" height="119.2"/>
	</defs>
	<clipPath id="SVGID_2_">
		<use xlink:href="#SVGID_1_"  overflow="visible"/>
	</clipPath>
	<path clip-path="url(#SVGID_2_)" fill="#231F20" d="M-249.3,252.6c-5.4,5.4-5.4,14.2,0,19.6l19.6-19.6
		C-235.1,247.2-243.9,247.2-249.3,252.6"/>
</g>
<g>
	<defs>
		<rect id="SVGID_3_" x="-253.3" y="248.5" width="85.4" height="119.2"/>
	</defs>
	<clipPath id="SVGID_4_">
		<use xlink:href="#SVGID_3_"  overflow="visible"/>
	</clipPath>
	<path clip-path="url(#SVGID_4_)" fill="#231F20" d="M-196.9,311.4c1.8-1.8,5.1-1.3,5.9-0.6c-0.7-0.7-1.2-4.1,0.6-5.9
		c1.8-1.8,5.3-2.4,5.3-2.4l8,19.2l-2.9,2.9l-19.2-7.9C-199.3,316.8-198.7,313.2-196.9,311.4 M-201.3,320.1l33.4,13.8l-13.8-33.4
		l-42.7-42.6l-19.5,19.6L-201.3,320.1z"/>
</g>
<rect x="-253.3" y="248.5" fill="none" width="85.4" height="119.2"/>
</svg>
