<?xml version="1.0" encoding="utf-8"?>
<!-- Generator: Adobe Illustrator 18.1.1, SVG Export Plug-In . SVG Version: 6.00 Build 0)  -->
<svg version="1.1" id="Layer_1" xmlns="http://www.w3.org/2000/svg" xmlns:xlink="http://www.w3.org/1999/xlink" x="0px" y="0px"
	 width="184px" height="173.3px" viewBox="0 0 184 173.3" enable-background="new 0 0 184 173.3" xml:space="preserve">
<g>
	<defs>
		<rect id="SVGID_1_" x="6.7" y="1.6" width="168" height="168"/>
	</defs>
	<clipPath id="SVGID_2_">
		<use xlink:href="#SVGID_1_"  overflow="visible"/>
	</clipPath>
	<path clip-path="url(#SVGID_2_)" fill="#FFFFFF" d="M174.7,85.7c0,46.4-37.6,84-84,84c-46.4,0-84-37.6-84-84s37.6-84,84-84
		C137.1,1.6,174.7,39.3,174.7,85.7"/>
</g>
<g>
	<defs>
		<rect id="SVGID_3_" x="49.7" y="27.8" width="85.4" height="119.2"/>
	</defs>
	<clipPath id="SVGID_4_">
		<use xlink:href="#SVGID_3_"  overflow="visible"/>
	</clipPath>
	<path clip-path="url(#SVGID_4_)" fill="#231F20" d="M53.7,31.9c-5.4,5.4-5.4,14.2,0,19.6l19.6-19.6C67.9,26.5,59.1,26.5,53.7,31.9"
		/>
	<path clip-path="url(#SVGID_4_)" fill="#231F20" d="M106.1,90.7c1.8-1.8,5.1-1.3,5.9-0.6c-0.7-0.7-1.2-4.1,0.6-5.9
		c1.8-1.8,5.3-2.4,5.3-2.4l8,19.2l-2.9,2.9l-19.2-7.9C103.7,96.1,104.3,92.5,106.1,90.7 M101.7,99.4l33.4,13.8l-13.8-33.4L78.6,37.2
		L59.1,56.8L101.7,99.4z"/>
	<path clip-path="url(#SVGID_4_)" fill="#231F20" d="M126.4,119.9c-5.4,19.3-28.3,0.7-36.7-3.7c-5.1-2.7-12.9-3.7-18.4-2.4
		C57.5,117,48.9,128.7,50.4,143c0.6,5.3,9,5.4,8.4,0c-2-18.2,15.6-25.3,29.9-17.8c7.1,3.7,13,8.3,20.8,10.7
		c11.1,3.4,22.1-3.1,25.1-13.7C136,116.9,127.9,114.7,126.4,119.9"/>
</g>
</svg>
