<?xml version="1.0" encoding="utf-8"?>
<!-- Generator: Adobe Illustrator 18.1.1, SVG Export Plug-In . SVG Version: 6.00 Build 0)  -->
<svg version="1.1" id="Layer_1" xmlns="http://www.w3.org/2000/svg" xmlns:xlink="http://www.w3.org/1999/xlink" x="0px" y="0px"
	 width="173.3px" height="170px" viewBox="0 0 173.3 170" enable-background="new 0 0 173.3 170" xml:space="preserve">
<path fill="#FFFFFF" d="M170,85c0,46.4-37.6,84-84,84c-46.4,0-84-37.6-84-84C2,38.6,39.6,1,86,1C132.4,1,170,38.6,170,85"/>
<path fill="#082032" d="M154.8,85c0,5.9-2.3,11.2-6,15.2c-0.6,8.4-5.9,15.4-13.3,18.6v0.1c-9,5.3-14.4,14.2-16.1,25h-8.3v-25
	c0.1-7.8,2.5-12.8,7.6-15.8c1.9-1.1,3.6-2.3,5-3.7c3.8,1.4,7.2,4.1,9.3,7.9c0.4,0.7,1.2,1.2,2,1.2c0.4,0,0.8-0.1,1.1-0.3
	c1.1-0.6,1.5-2.1,0.9-3.2h0c-2.4-4.3-6.1-7.4-10.2-9.3c2.1-3.3,3.3-7.2,3.3-11.8c0,0,0,0,0-0.1c0-2.1-0.3-4.2-0.9-6.1
	c4.9-0.9,9.2-3.4,12.3-6.9c0.9-1,0.8-2.4-0.2-3.3c-1-0.9-2.4-0.8-3.3,0.1c-2.8,3-6.5,5-10.7,5.6c-3.4-6.3-9.7-10.7-17.1-11.6
	c0.5-4,2.3-7.5,5-10.2c0.9-0.9,0.9-2.4,0-3.3c-0.9-0.9-2.4-0.9-3.3,0c-3.5,3.5-5.8,8.1-6.4,13.2c-8.7-1.1-15.4-8.5-15.4-17.4
	c0-1.3-1.1-2.3-2.3-2.3c-1.3,0-2.4,1.1-2.4,2.3c0,1.5,0.2,3,0.4,4.4c-3.3,2.8-7.4,4.3-11.5,4.3c-2,0-4.1-0.4-6-1.1c0,0,0,0-0.1,0
	c-2.4-0.9-4.5-2.2-6.4-4.1c-0.9-0.9-2.4-0.9-3.3,0c-0.9,0.9-0.9,2.4,0,3.3c1.9,1.9,4.1,3.4,6.4,4.5c-0.5,5.8-3.8,10.8-8.6,13.6
	c-2.7-4.1-6.8-7.4-11.9-9c-1.3-0.4-2.6,0.3-3,1.5c-0.3,1.2,0.3,2.5,1.5,2.9c3.8,1.2,6.8,3.5,8.9,6.4c-1.5,0.4-2.9,0.6-4.5,0.6h0
	h-0.3c-6,0-11.5,2.4-15.5,6.3c-0.9,0.9-1,2.4,0,3.3c0.4,0.5,1.1,0.7,1.7,0.7c0.5,0,1.1-0.2,1.6-0.7c3.2-3.1,7.5-5,12.3-5h0.2h0h0
	c11.2,0,20.6-8.4,22-19.2c1.6,0.3,3.2,0.5,4.8,0.5c4.6,0,9.2-1.4,13-4.2c1.4,3.2,3.6,6.1,6.4,8.2c-2.8,3.4-4.4,7.5-4.8,11.6
	c-1.2-0.2-2.4-0.3-3.6-0.3c-3.5,0-7.1,0.8-10.4,2.6c-1.1,0.6-1.6,2-1,3.2c0.4,0.8,1.2,1.2,2.1,1.2c0.4,0,0.7-0.1,1.1-0.3
	c2.7-1.4,5.5-2.1,8.2-2.1c1.2,0,2.5,0.1,3.6,0.4c0.5,4.7,2.5,9.3,6.1,13c0.5,0.5,1.1,0.7,1.7,0.7c0.6,0,1.2-0.2,1.6-0.6
	c1-0.9,1-2.4,0.1-3.3h0c-3.1-3.3-4.8-7.5-4.9-11.7c0-0.1,0-0.1,0-0.2v-0.3c0-4.1,1.4-8.2,4.2-11.4c3,1.5,6.3,2.3,9.9,2.3
	c0,0,0,0,0,0h0c9.7,0,17.5,7.8,17.6,17.5c-1.8-0.5-3.7-0.7-5.7-0.7c-2.8,0-5.6,0.5-8.3,1.6c-1.2,0.5-1.8,1.9-1.3,3
	c0.5,1.2,1.8,1.8,3,1.3c2.2-0.9,4.4-1.3,6.6-1.3c1.8,0,3.5,0.3,5.1,0.8c-0.6,2.6-1.7,4.7-3.4,6.6c-0.1,0.1-0.3,0.3-0.4,0.4
	c-1.3,1.3-2.9,2.5-4.9,3.7c-6.7,3.9-10,11.1-9.9,19.8v25h-8v-23.7c0-8.7-5.5-17-12.3-19.9c-3.3-1.3-6.7-3.4-9.2-6.2
	c-3.6,2.4-7.8,3.8-12.4,3.8c-4.6,0-8.9-1.4-12.4-3.8c-3.5,2.3-7.8,3.7-12.3,3.7c-12.5,0-22.6-10.1-22.6-22.6
	c0-9.3,5.6-17.3,13.7-20.8c2.2-9.9,11-17.4,21.6-17.4c0.6,0,1.1,0,1.6,0.1c4-5.8,10.7-9.7,18.3-9.7c3.8,0,7.3,0.9,10.4,2.6
	c3.5-2.3,7.7-3.7,12.2-3.7c5.8,0,11.1,2.3,15,5.9c1.7-0.4,3.4-0.6,5.2-0.6c9,0,16.7,5.4,20.2,13.1c9.1,2.8,15.7,11.2,15.7,21.2
	c0,2-0.3,3.9-0.8,5.8C153.1,75.3,154.8,79.9,154.8,85"/>
<g>
	<path fill="#FF4338" d="M71.1,81c3.6,0,6.6-2.9,6.6-6.6c0-3.6-2.9-6.6-6.6-6.6c-3.6,0-6.6,2.9-6.6,6.6C64.5,78.1,67.5,81,71.1,81"
		/>
	<path fill="#FF4338" d="M103.4,85c3.6,0,6.6-2.9,6.6-6.6c0-3.6-2.9-6.6-6.6-6.6c-3.6,0-6.6,2.9-6.6,6.6C96.9,82.1,99.8,85,103.4,85
		"/>
	<path fill="#FF4338" d="M118.1,52.8c3.6,0,6.6-2.9,6.6-6.6c0-3.6-2.9-6.6-6.6-6.6c-3.6,0-6.6,2.9-6.6,6.6
		C111.5,49.8,114.5,52.8,118.1,52.8"/>
	<path fill="#FF4338" d="M63.5,58.4c3.6,0,6.6-2.9,6.6-6.6c0-3.6-2.9-6.6-6.6-6.6c-3.6,0-6.6,2.9-6.6,6.6
		C56.9,55.4,59.9,58.4,63.5,58.4"/>
	<path fill="#FF4338" d="M135.8,95.6c3.6,0,6.6-2.9,6.6-6.6c0-3.6-2.9-6.6-6.6-6.6c-3.6,0-6.6,2.9-6.6,6.6
		C129.2,92.7,132.1,95.6,135.8,95.6"/>
	<path fill="#FF4338" d="M35.8,89c3.6,0,6.6-2.9,6.6-6.6c0-3.6-2.9-6.6-6.6-6.6c-3.6,0-6.6,2.9-6.6,6.6C29.2,86.1,32.1,89,35.8,89"
		/>
</g>
</svg>
